Children.of.the.Corn.Genesis.2011.DVDRip.Xvid.AC3-SiC


IMDB Link: http://www.imdb.com/title/tt1745672/


MediaInfo:


General

Complete name: Children.of.the.Corn.Genesis.2011.DVDRip.Xvid.AC3-SiC.avi
Format: AVI
Format/Info: Audio Video Interleave
File size: 1.30 GiB
Duration: 1h 20mn
Overall bit rate: 2 304 Kbps


Video

ID: 0
Format: MPEG-4 Visual
Format profile: Advanced Simple@L5
Format settings, BVOP: Yes
Format settings, QPel: No
Format settings, GMC: No warppoints
Format settings, Matrix: Default (H.263)
Muxing mode: Packed bitstream
Codec ID: XVID
Codec ID/Hint: XviD
Duration: 1h 20mn
Bit rate: 1 912 Kbps
Width: 720 pixels
Height: 304 pixels
Display aspect ratio: 2.35:1
Frame rate: 23.976 fps
Resolution: 8 bits
Colorimetry: 4:2:0
Scan type: Progressive
Bits/(Pixel*Frame): 0.364
Stream size: 1.08 GiB (83%)
Writing library: XviD 64


Audio

ID: 1
Format: AC-3
Format/Info: Audio Coding 3
Format_Settings_ModeExtension: CM (complete main)
Codec ID: 2000
Duration: 1h 20mn
Bit rate mode: Constant
Bit rate: 384 Kbps
Channel(s): 6 channels
Channel positions: Front: L C R, Side: L R, LFE
Sampling rate: 48.0 KHz
Stream size: 221 MiB (17%)
Alignment: Aligned on interleaves
Interleave, duration: 64 ms (1.53 video frames)
Interleave, preload duration: 960 ms
Title: 6ch English


Source: In House


Greetz:


CaptainHomey, Cyanide, CM8, Rx, THC, ELEKTRI4KA
Killerhz, PA, YeFsTe, BoxSlots, MrRep and everyone in the struggle


Screens:

 
http://www.pix2links.com/images/78303302620106687710.png
    	 
http://www.pix2links.com/images/51885738642757109924.png
    	 
http://www.pix2links.com/images/02871530392801208264.png


ENJOY!